<svg width="37" height="30" viewBox="0 0 37 30" fill="none" xmlns="http://www.w3.org/2000/svg">
<path fill-rule="evenodd" clip-rule="evenodd" d="M2.71497 20.1096C2.71497 24.3126 8.31497 27.7226 15.221 27.7226C22.128 27.7226 27.727 24.3126 27.727 20.1096C27.727 15.9066 22.127 12.4976 15.221 12.4976C8.31397 12.4976 2.71497 15.9066 2.71497 20.1096Z" fill="#FEFEFE"/>
<path fill-rule="evenodd" clip-rule="evenodd" d="M15.513 27.1016C9.399 27.6916 4.123 24.9906 3.725 21.0666C3.328 17.1446 7.964 13.4856 14.075 12.8946C20.19 12.3036 25.465 15.0046 25.864 18.9266C26.259 22.8506 21.626 26.5106 15.514 27.1016M27.74 14.0776C27.219 13.9256 26.862 13.8226 27.136 13.1536C27.726 11.7036 27.786 10.4526 27.147 9.56061C25.947 7.88561 22.667 7.97661 18.908 9.51561C18.908 9.51461 17.728 10.0206 18.03 9.10561C18.609 7.28761 18.52 5.76561 17.621 4.88661C15.582 2.89161 10.157 4.96161 5.506 9.50661C2.023 12.9136 0 16.5226 0 19.6426C0 25.6126 7.831 29.2406 15.492 29.2406C25.535 29.2406 32.216 23.5386 32.216 19.0096C32.216 16.2726 29.858 14.7196 27.74 14.0776Z" fill="#D52C2B"/>
<path fill-rule="evenodd" clip-rule="evenodd" d="M34.409 3.15361C31.984 0.525615 28.405 -0.476385 25.103 0.209615C24.339 0.369615 23.852 1.10361 24.015 1.84961C24.177 2.59661 24.929 3.07362 25.693 2.91262C28.043 2.42562 30.584 3.13861 32.31 5.00561C33.1246 5.88226 33.6891 6.96147 33.9445 8.13064C34.1999 9.29982 34.1369 10.5161 33.762 11.6526C33.521 12.3796 33.927 13.1576 34.672 13.3926C35.415 13.6276 36.212 13.2306 36.454 12.5046V12.4996C36.9817 10.9015 37.0703 9.19087 36.7105 7.54675C36.3508 5.90262 35.5559 4.38535 34.409 3.15361Z" fill="#E79115"/>
<path fill-rule="evenodd" clip-rule="evenodd" d="M30.684 6.43962C29.503 5.15962 27.761 4.67362 26.152 5.00762C25.9972 5.03776 25.8499 5.09843 25.7188 5.18608C25.5877 5.27373 25.4753 5.38661 25.3883 5.51814C25.3013 5.64966 25.2413 5.7972 25.2119 5.95215C25.1825 6.10709 25.1842 6.26635 25.217 6.42062C25.357 7.06062 26.004 7.47362 26.659 7.33362V7.33562C27.0573 7.25136 27.4707 7.27134 27.8591 7.39362C28.2475 7.5159 28.5977 7.73634 28.876 8.03362C29.454 8.65962 29.609 9.51262 29.36 10.2606H29.362C29.3136 10.4105 29.2955 10.5685 29.3088 10.7254C29.3221 10.8823 29.3664 11.035 29.4393 11.1746C29.5122 11.3142 29.6121 11.4379 29.7332 11.5385C29.8544 11.6391 29.9944 11.7146 30.145 11.7606C30.785 11.9596 31.471 11.6186 31.677 10.9926C31.9351 10.2144 31.9791 9.3811 31.8044 8.58004C31.6297 7.77898 31.2427 7.03967 30.684 6.43962Z" fill="#E79115"/>
<path fill-rule="evenodd" clip-rule="evenodd" d="M15.8501 19.9956C15.6371 20.3536 15.1641 20.5256 14.7931 20.3756C14.4291 20.2296 14.3141 19.8306 14.5231 19.4786C14.7351 19.1296 15.1891 18.9586 15.5531 19.1006C15.9221 19.2316 16.0541 19.6356 15.8501 19.9956ZM13.9031 22.4406C13.3101 23.3616 12.0441 23.7656 11.0911 23.3406C10.1511 22.9226 9.87405 21.8506 10.4651 20.9526C11.0481 20.0556 12.2731 19.6576 13.2191 20.0456C14.1771 20.4456 14.4821 21.5086 13.9031 22.4406ZM16.1231 15.9146C13.2141 15.1736 9.92605 16.5906 8.66305 19.0976C7.37605 21.6526 8.62105 24.4896 11.5601 25.4176C14.6031 26.3776 18.1921 24.9056 19.4401 22.1486C20.6701 19.4516 19.1341 16.6746 16.1231 15.9146Z" fill="#060101"/>
</svg>
